__________
Stream #0:0: Video: hevc (Main), yuv420p(tv), 1920x1080
58
920x1080
__________
Stream #0:0: Video: hevc (Main), yuv420p(tv), 1920x1080
58
1920x1080
